<svg width="60" height="60" viewBox="0 0 60 60" fill="none" xmlns="http://www.w3.org/2000/svg">
<g clip-path="url(#clip0_4_330)">
<path d="M30.0003 59.9996C46.5687 59.9996 60.0001 46.5682 60.0001 29.9998C60.0001 13.4314 46.5687 0 30.0003 0C13.4319 0 0.000488281 13.4314 0.000488281 29.9998C0.000488281 46.5682 13.4319 59.9996 30.0003 59.9996Z" fill="#A6D9EA"/>
<path d="M30.4263 13.6898C30.4263 13.6898 26.2284 12.7022 22.6489 15.4177C19.0694 18.1335 20.97 21.9977 17.5135 25.0837C14.0579 28.1696 14.5511 30.9464 16.4646 34.3407C18.3772 37.7349 14.0525 39.3214 15.2722 43.4638C16.4551 47.4789 20.6608 49.5324 20.6608 49.5324H39.4839C39.4839 49.5324 45.5534 45.0449 45.8618 41.7741C46.1701 38.5029 42.7568 36.8741 43.7444 34.5906C44.7312 32.307 44.8025 29.1042 42.5317 26.6001C39.7326 23.5142 41.9005 22.8701 39.7927 18.6039C37.3599 13.6807 33.8185 12.6127 30.4263 13.6898Z" fill="#471B18"/>
<path d="M44.3672 48.4649C42.4334 44.8041 30.0002 42.5068 30.0002 42.5068C30.0002 42.5068 17.5669 44.8041 15.6331 48.4649C14.2037 53.5451 13.0081 60 13.0081 60H30.0002H46.9923C46.9923 60 46.1845 53.0788 44.3672 48.4649Z" fill="#F1C9A5"/>
<path d="M30.0002 42.5068C30.0002 42.5068 42.4335 44.8041 44.3673 48.4649C46.1846 53.0788 46.9924 60 46.9924 60H30.0002V42.5068Z" fill="#E4B692"/>
<path d="M33.3845 35.0645H26.615V46.3936H33.3845V35.0645Z" fill="#F1C9A5"/>
<path d="M33.3846 35.0645H30.0002V46.3936H33.3846V35.0645Z" fill="#E4B692"/>
<path opacity="0.1" d="M26.615 40.3142C27.2238 42.0619 29.681 43.0636 31.4855 43.0636C32.1378 43.0636 32.7736 42.9542 33.3845 42.754V35.0645H26.615V40.3142Z" fill="#DDAC8C"/>
<path d="M38.7034 27.9157C38.7034 20.8395 34.8069 16.8157 30.0002 16.8157C25.1935 16.8157 21.2969 20.8395 21.2969 27.9157C21.2969 34.9919 25.1935 40.729 30.0002 40.729C34.8069 40.729 38.7034 34.9923 38.7034 27.9157Z" fill="#F1C9A5"/>
<path d="M37.3786 32.8219C35.8008 32.6462 34.7357 30.8396 35.003 28.7886C35.267 26.7358 36.7611 25.2119 38.3397 25.3864C39.9166 25.5613 40.9801 27.367 40.714 29.4198C40.4488 31.4725 38.9564 32.9951 37.3786 32.8219Z" fill="#E4B692"/>
<path d="M19.3478 29.4198C19.0813 27.367 20.1452 25.5609 21.7213 25.3864C23.3003 25.2119 24.7948 26.7358 25.0596 28.7886C25.3261 30.8396 24.2597 32.6466 22.6832 32.8219C21.105 32.9951 19.6126 31.4725 19.3478 29.4198Z" fill="#F1C9A5"/>
<path d="M38.7035 27.9157C38.7035 20.8395 34.8069 16.8157 30.0002 16.8157V40.729C34.8069 40.729 38.7035 34.9923 38.7035 27.9157Z" fill="#E4B692"/>
<path d="M19.4353 60H30.0003H40.5217V48.5747H19.4353V60Z" fill="#F6F6F6"/>
<path d="M27.9578 60L25.9917 43.4194C21.5924 44.1099 16.6075 46.6185 15.6331 48.4648C14.2037 53.5451 13.0081 60 13.0081 60H27.9578Z" fill="#FE393E"/>
<path d="M32.8801 60.0001H46.9923C46.9923 60.0001 46.1845 53.0789 44.3672 48.4649C42.7807 45.6384 36.5098 44.1075 34.3245 43.4639L32.8801 60.0001Z" fill="#FE393E"/>
<path d="M29.9782 20.5908C29.9782 20.5908 28.1029 24.6366 25.4608 25.9093C21.2969 27.916 24.9096 30.9796 24.4247 35.0648C23.9875 38.7504 19.7063 40.4322 22.2037 44.3955C17.8624 45.2505 18.0697 43.0639 18.0697 43.0639C18.0697 43.0639 17.6552 31.6813 17.5516 31.4202C17.448 31.1591 20.0383 24.1135 20.0383 24.1135L23.7633 16.1355L30.4258 14.7874L29.9782 20.5908Z" fill="#471B18"/>
<path d="M29.9782 20.5907C29.9782 20.5907 30.1879 23.7678 33.3845 24.0442C36.5819 24.3207 36.9963 26.6627 36.3747 28.7726C35.753 30.8825 35.4762 32.0571 37.2035 33.7148C38.9301 35.3726 36.9963 41.7741 36.9963 41.7741L43.3514 38.7499C43.3514 38.7499 41.9957 33.6096 42.7297 30.7445C43.4637 27.8795 40.1734 25.8404 39.3446 23.7682C38.5157 21.696 34.3543 14.2195 30.9869 14.7873C27.6187 15.3551 27.9578 18.9329 27.9578 18.9329L29.9782 20.5907Z" fill="#471B18"/>
</g>
<defs>
<clipPath id="clip0_4_330">
<rect width="60" height="60" fill="white"/>
</clipPath>
</defs>
</svg>
