<svg width="60" height="60" viewBox="0 0 60 60" fill="none" xmlns="http://www.w3.org/2000/svg">
<g clip-path="url(#clip0_4_543)">
<path d="M30.0003 59.9996C46.5687 59.9996 60.0001 46.5682 60.0001 29.9998C60.0001 13.4314 46.5687 0 30.0003 0C13.4319 0 0.000488281 13.4314 0.000488281 29.9998C0.000488281 46.5682 13.4319 59.9996 30.0003 59.9996Z" fill="#FDC20E"/>
<path d="M44.3672 48.4649C42.4334 44.8041 30.0002 42.5068 30.0002 42.5068C30.0002 42.5068 17.5669 44.8041 15.6331 48.4649C14.2037 53.5451 13.0081 60 13.0081 60H30.0002H46.9923C46.9923 60 46.1845 53.0788 44.3672 48.4649Z" fill="#F1C9A5"/>
<path d="M30.0002 42.5068C30.0002 42.5068 42.4335 44.8041 44.3673 48.4649C46.185 53.0788 46.9924 60 46.9924 60H30.0002V42.5068Z" fill="#E4B692"/>
<path d="M33.385 35.0645H26.6155V46.3936H33.385V35.0645Z" fill="#F1C9A5"/>
<path d="M33.385 35.0645H30.0002V46.3936H33.385V35.0645Z" fill="#E4B692"/>
<path opacity="0.1" d="M26.6155 40.3142C27.2243 42.0619 29.6811 43.0636 31.4856 43.0636C32.1383 43.0636 32.7733 42.9542 33.385 42.754V35.0645H26.6155V40.3142Z" fill="#DDAC8C"/>
<path d="M38.7034 27.9157C38.7034 20.8395 34.8069 16.8157 30.0002 16.8157C25.1935 16.8157 21.2969 20.8395 21.2969 27.9157C21.2969 37.4337 25.1935 40.729 30.0002 40.729C34.8064 40.729 38.7034 37.0371 38.7034 27.9157Z" fill="#F1C9A5"/>
<path d="M37.3786 32.8228C35.8008 32.6574 34.7357 30.9578 35.003 29.0282C35.267 27.0969 36.7611 25.6629 38.3397 25.827C39.9166 25.9911 40.9801 27.6903 40.714 29.6216C40.4492 31.5534 38.9564 32.9861 37.3786 32.8228Z" fill="#E4B692"/>
<path d="M19.3483 29.6219C19.0818 27.6906 20.1457 25.9914 21.7218 25.8273C23.3012 25.6628 24.7953 27.0967 25.0601 29.0285C25.3262 30.9581 24.2602 32.6581 22.6837 32.8231C21.1055 32.986 19.6127 31.5532 19.3483 29.6219Z" fill="#F1C9A5"/>
<path d="M38.7035 27.9157C38.7035 20.8395 34.8069 16.8157 30.0002 16.8157V40.729C34.8065 40.729 38.7035 37.0371 38.7035 27.9157Z" fill="#E4B692"/>
<path d="M44.3672 48.465C43.2374 46.3273 38.531 44.6559 34.8081 43.6343L30.0002 49.1298L25.1922 43.6343C21.4693 44.6559 16.7625 46.3273 15.6331 48.465C14.2037 53.5452 13.0081 60.0002 13.0081 60.0002H30.0002H46.9923C46.9923 60.0002 46.1845 53.079 44.3672 48.465Z" fill="#3595BB"/>
<path d="M22.6972 31.3029C22.6972 31.3029 28.8454 27.1071 29.569 24.7929C29.4965 26.8903 29.569 28.7711 29.569 28.7711C29.569 28.7711 35.5731 22.84 34.9941 17.9935C28.1947 14.3763 22.9143 18.5721 21.6843 20.5249C20.4542 22.4778 20.1649 27.9032 22.6972 31.3029Z" fill="#262421"/>
<path d="M34.126 19.9458C34.126 19.9458 36.9475 23.3463 37.5261 30.1457C39.5514 27.1795 41.7215 18.5716 34.9942 17.9934C34.4153 19.078 34.126 19.9458 34.126 19.9458Z" fill="#262421"/>
<path d="M36.2159 50.2851L32.454 46.7885L29.9939 49.1292L34.0824 43.2922C34.0824 43.2922 35.4156 43.4398 35.8897 44.892C36.0381 47.1743 36.2159 50.2851 36.2159 50.2851Z" fill="#F6F6F6"/>
<path d="M28.6707 60H30.0002V49.1296L28.6707 47.8701V60Z" fill="#27AAE1"/>
<path d="M23.772 50.2851L27.5339 46.7885L29.994 49.1292L25.9055 43.2922C25.9055 43.2922 24.5723 43.4398 24.0981 44.892C23.9498 47.1743 23.772 50.2851 23.772 50.2851Z" fill="#F6F6F6"/>
</g>
<defs>
<clipPath id="clip0_4_543">
<rect width="60" height="60" fill="white"/>
</clipPath>
</defs>
</svg>
