<svg width="60" height="60" viewBox="0 0 60 60" fill="none" xmlns="http://www.w3.org/2000/svg">
<g clip-path="url(#clip0_4_231)">
<path d="M30.0003 59.9996C46.5687 59.9996 60.0001 46.5682 60.0001 29.9998C60.0001 13.4314 46.5687 0 30.0003 0C13.4319 0 0.000488281 13.4314 0.000488281 29.9998C0.000488281 46.5682 13.4319 59.9996 30.0003 59.9996Z" fill="#2E5871"/>
<path d="M44.3675 48.4646C42.4337 44.8038 30.0004 42.5066 30.0004 42.5066C30.0004 42.5066 17.5672 44.8038 15.6334 48.4646C14.204 53.5448 13.0083 59.9998 13.0083 59.9998H30.0004H46.9925C46.9925 59.9998 46.1848 53.0786 44.3675 48.4646Z" fill="#F1C9A5"/>
<path d="M30.0002 42.5066C30.0002 42.5066 42.4335 44.8038 44.3673 48.4646C46.185 53.0786 46.9924 59.9998 46.9924 59.9998H30.0002V42.5066Z" fill="#E4B692"/>
<path d="M33.385 35.0642H26.6155V46.3934H33.385V35.0642Z" fill="#F1C9A5"/>
<path d="M33.385 35.0642H30.0002V46.3934H33.385V35.0642Z" fill="#E4B692"/>
<path opacity="0.1" d="M26.6155 40.3139C27.2243 42.0616 29.6811 43.0634 31.4856 43.0634C32.1383 43.0634 32.7733 42.9539 33.385 42.7538V35.0642H26.6155V40.3139Z" fill="#DDAC8C"/>
<path d="M44.3674 48.4648C43.2376 46.3271 38.5312 44.6556 34.8083 43.634C34.6628 46.1663 32.5695 48.1763 30.0003 48.1763C27.4316 48.1763 25.3383 46.1663 25.1924 43.634C21.4695 44.6556 16.7627 46.3271 15.6329 48.4648C14.2035 53.545 13.0078 59.9999 13.0078 59.9999H29.9999H46.9921C46.9925 59.9999 46.1847 53.0787 44.3674 48.4648Z" fill="#F6F6F6"/>
<path d="M38.7037 27.9154C38.7037 20.8392 34.8071 16.8154 30.0004 16.8154C25.1937 16.8154 21.2971 20.8392 21.2971 27.9154C21.2971 30.8799 22.2039 37.4439 23.7523 38.7817C24.8153 39.7262 28.2854 41.3442 29.9826 41.3442H29.983C29.9888 41.3442 29.9946 41.3433 30.0008 41.3433C30.0066 41.3433 30.0124 41.3442 30.0178 41.3442H30.0186C31.7162 41.3442 35.1863 39.7266 36.2489 38.7817C37.8586 37.0816 38.7037 30.6367 38.7037 27.9154Z" fill="#F1C9A5"/>
<path d="M30.0007 41.3433C30.0065 41.3433 30.0123 41.3442 30.0177 41.3442H30.0185C31.716 41.3442 35.1862 39.7266 36.2488 38.7817C37.8585 37.0812 38.7035 30.6367 38.7035 27.9154C38.7035 20.8392 34.8069 16.8154 30.0002 16.8154L30.0007 41.3433Z" fill="#E4B692"/>
<path d="M37.3786 32.8225C35.8008 32.6576 34.7357 30.9576 35.003 29.0279C35.267 27.0966 36.7611 25.6626 38.3397 25.8268C39.9166 25.9909 40.9801 27.6901 40.714 29.6214C40.4492 31.5531 38.9564 32.9858 37.3786 32.8225Z" fill="#E4B692"/>
<path d="M19.3483 29.6217C19.0818 27.6904 20.1457 25.9912 21.7218 25.8271C23.3008 25.6625 24.7953 27.0965 25.0601 29.0282C25.3266 30.9579 24.2602 32.6579 22.6837 32.8228C21.1055 32.9857 19.6127 31.553 19.3483 29.6217Z" fill="#F1C9A5"/>
<path d="M15.6334 48.4646C14.204 53.5448 13.0083 59.9998 13.0083 59.9998H25.3491C23.2545 50.7556 23.1737 44.2414 23.1737 44.229C19.9328 45.2552 16.5655 46.7007 15.6334 48.4646Z" fill="#FB6020"/>
<path d="M44.3673 48.4646C46.3027 53.2444 46.9924 59.9998 46.9924 59.9998H34.6511C36.7457 50.7556 36.8265 44.2414 36.8265 44.229C40.0679 45.2552 43.4352 46.7007 44.3673 48.4646Z" fill="#FB6020"/>
<path d="M21.8296 32.627C21.8296 32.627 23.1007 36.9086 24.477 37.6355C25.1124 37.6355 25.589 37.6355 25.589 37.6355L26.9649 35.6855L29.9825 34.8446V41.3447H26.0648L22.1475 37.827L21.8296 32.627Z" fill="#915F2C"/>
<path d="M38.1532 32.627C38.1532 32.627 36.8821 36.9086 35.5057 37.6355C34.8704 37.6355 34.3937 37.6355 34.3937 37.6355L33.0178 35.6855L30.0002 34.8446V41.3447H33.918L37.8353 37.827L38.1532 32.627Z" fill="#915F2C"/>
<path d="M31.3963 36.9853C31.3963 36.9853 31.189 36.0627 29.9801 36.0627C28.8748 36.0627 28.564 36.9853 28.564 36.9853H31.3963Z" fill="#F6F6F6"/>
<path d="M21.3108 25.847C21.3108 25.847 22.4642 26.087 23.2093 26.9532C23.078 25.4376 22.7866 20.4029 24.6267 19.1397C26.4669 17.8769 27.3276 19.194 30.0004 19.194C30.0004 17.2093 30.0004 15.5129 30.0004 15.5129C30.0004 15.5129 26.788 15.5129 25.6562 15.5129C24.5239 15.5129 20.9312 16.0542 20.9312 19.4464C20.9307 22.839 21.3108 25.847 21.3108 25.847Z" fill="#915F2C"/>
<path d="M38.6896 25.847C38.6896 25.847 37.5362 26.087 36.791 26.9532C36.9224 25.4376 37.2138 20.4029 35.3737 19.1397C33.5339 17.8769 32.6727 19.194 30 19.194C30 17.2093 30 15.5129 30 15.5129C30 15.5129 33.2123 15.5129 34.3442 15.5129C35.4764 15.5129 39.0692 16.0542 39.0692 19.4464C39.0696 22.839 38.6896 25.847 38.6896 25.847Z" fill="#915F2C"/>
</g>
<defs>
<clipPath id="clip0_4_231">
<rect width="60" height="60" fill="white"/>
</clipPath>
</defs>
</svg>
