<svg width="17" height="17" viewBox="0 0 17 17" fill="none" xmlns="http://www.w3.org/2000/svg">
<path d="M8.31667 0.900024C6.7509 0.900024 5.2203 1.36433 3.91841 2.23422C2.61652 3.10412 1.60182 4.34053 1.00263 5.78711C0.403432 7.23369 0.246655 8.82547 0.552122 10.3612C0.857588 11.8968 1.61158 13.3075 2.71874 14.4146C3.82591 15.5218 5.23652 16.2758 6.77221 16.5812C8.30789 16.8867 9.89967 16.7299 11.3462 16.1307C12.7928 15.5315 14.0292 14.5168 14.8991 13.215C15.769 11.9131 16.2333 10.3825 16.2333 8.81669C16.2333 6.71706 15.3993 4.70342 13.9146 3.21876C12.4299 1.7341 10.4163 0.900024 8.31667 0.900024ZM7.33369 4.85836C7.33369 4.5959 7.43794 4.3442 7.62353 4.15862C7.80911 3.97303 8.06081 3.86877 8.32327 3.86877C8.58572 3.86877 8.83743 3.97303 9.02301 4.15862C9.20859 4.3442 9.31285 4.5959 9.31285 4.85836V9.40384C9.31285 9.5338 9.28726 9.66248 9.23752 9.78254C9.18779 9.9026 9.1149 10.0117 9.02301 10.1036C8.93112 10.1955 8.82203 10.2684 8.70197 10.3181C8.5819 10.3678 8.45322 10.3934 8.32327 10.3934C8.19331 10.3934 8.06463 10.3678 7.94457 10.3181C7.82451 10.2684 7.71542 10.1955 7.62353 10.1036C7.53164 10.0117 7.45874 9.9026 7.40901 9.78254C7.35928 9.66248 7.33369 9.5338 7.33369 9.40384V4.85836ZM8.31667 13.7646C8.09224 13.7646 7.87286 13.6981 7.68625 13.5734C7.49965 13.4487 7.35421 13.2715 7.26832 13.0641C7.18244 12.8568 7.15997 12.6286 7.20375 12.4085C7.24754 12.1884 7.35561 11.9862 7.5143 11.8275C7.673 11.6688 7.87518 11.5607 8.0953 11.517C8.31541 11.4732 8.54357 11.4957 8.75091 11.5815C8.95825 11.6674 9.13547 11.8129 9.26016 11.9995C9.38484 12.1861 9.45139 12.4055 9.45139 12.6299C9.45139 12.9308 9.33184 13.2195 9.11904 13.4323C8.90624 13.6451 8.61762 13.7646 8.31667 13.7646Z" fill="#FF0000"/>
</svg>
