<svg width="23" height="15" viewBox="0 0 23 15" fill="none" xmlns="http://www.w3.org/2000/svg">
<path d="M21.3349 7.80001C20.0682 5.83334 18.4807 4.36251 16.5724 3.38751C17.0807 4.25417 17.3349 5.19167 17.3349 6.20001C17.3349 7.74167 16.787 9.06042 15.6912 10.1563C14.5953 11.2521 13.2766 11.8 11.7349 11.8C10.1932 11.8 8.8745 11.2521 7.77866 10.1563C6.68283 9.06042 6.13491 7.74167 6.13491 6.20001C6.13491 5.19167 6.38908 4.25417 6.89741 3.38751C4.98908 4.36251 3.40158 5.83334 2.13491 7.80001C3.24325 9.50834 4.63283 10.8688 6.30366 11.8813C7.9745 12.8938 9.78491 13.4 11.7349 13.4C13.6849 13.4 15.4953 12.8938 17.1662 11.8813C18.837 10.8688 20.2266 9.50834 21.3349 7.80001ZM12.3349 3.00001C12.3349 2.83334 12.2766 2.69167 12.1599 2.57501C12.0432 2.45834 11.9016 2.40001 11.7349 2.40001C10.6932 2.40001 9.7995 2.77292 9.05366 3.51876C8.30783 4.26459 7.93491 5.15834 7.93491 6.20001C7.93491 6.36667 7.99325 6.50834 8.10991 6.62501C8.22658 6.74167 8.36825 6.80001 8.53491 6.80001C8.70158 6.80001 8.84325 6.74167 8.95991 6.62501C9.07658 6.50834 9.13491 6.36667 9.13491 6.20001C9.13491 5.48334 9.38908 4.87084 9.89741 4.36251C10.4057 3.85417 11.0182 3.60001 11.7349 3.60001C11.9016 3.60001 12.0432 3.54167 12.1599 3.42501C12.2766 3.30834 12.3349 3.16667 12.3349 3.00001ZM22.9349 7.80001C22.9349 8.08334 22.8516 8.37084 22.6849 8.66251C21.5182 10.5792 19.9495 12.1146 17.9787 13.2688C16.0078 14.4229 13.9266 15 11.7349 15C9.54325 15 7.462 14.4208 5.49116 13.2625C3.52033 12.1042 1.95158 10.5708 0.784912 8.66251C0.618245 8.37084 0.534912 8.08334 0.534912 7.80001C0.534912 7.51667 0.618245 7.22917 0.784912 6.93751C1.95158 5.02917 3.52033 3.49584 5.49116 2.33751C7.462 1.17917 9.54325 0.600006 11.7349 0.600006C13.9266 0.600006 16.0078 1.17917 17.9787 2.33751C19.9495 3.49584 21.5182 5.02917 22.6849 6.93751C22.8516 7.22917 22.9349 7.51667 22.9349 7.80001Z" fill="#F6F6F6"/>
</svg>
