<svg width="19" height="19" viewBox="0 0 19 19" fill="none" xmlns="http://www.w3.org/2000/svg">
<path d="M16.0851 3.15244L9.78018 1.00381C9.7041 0.977832 9.60205 0.964844 9.5 0.964844C9.39795 0.964844 9.2959 0.977832 9.21982 1.00381L2.91494 3.15244C2.76094 3.20439 2.63477 3.38252 2.63477 3.5458V12.4966C2.63477 12.6599 2.74053 12.8751 2.86855 12.9771L9.26436 17.9609C9.3293 18.011 9.41279 18.037 9.49814 18.037C9.5835 18.037 9.66885 18.011 9.73193 17.9609L16.1277 12.9771C16.2558 12.877 16.3615 12.6617 16.3615 12.4966V3.5458C16.3652 3.38252 16.2391 3.20625 16.0851 3.15244ZM15.0293 12.1403L9.5 16.4487L3.9707 12.1403V4.20635L9.5 2.32119L15.0293 4.20635V12.1403Z" fill="#F6F6F6"/>
<path d="M3.9707 4.20632V12.1403L9.5 16.4487L15.0293 12.1403V4.20632L9.5 2.32117L3.9707 4.20632ZM11.7414 6.08591H12.7656C12.8862 6.08591 12.9567 6.22322 12.8862 6.32156L8.9415 11.7525C8.91377 11.7905 8.87747 11.8213 8.83556 11.8426C8.79365 11.8639 8.7473 11.875 8.70029 11.875C8.65328 11.875 8.60694 11.8639 8.56503 11.8426C8.52311 11.8213 8.48681 11.7905 8.45908 11.7525L6.11377 8.524C6.04326 8.42566 6.11377 8.28835 6.23438 8.28835H7.25859C7.35508 8.28835 7.44414 8.33474 7.4998 8.41081L8.70029 10.064L11.5002 6.20837C11.5559 6.1323 11.6468 6.08591 11.7414 6.08591Z" fill="#F6F6F6"/>
<path d="M7.4998 8.41084C7.44413 8.33477 7.35507 8.28838 7.25858 8.28838H6.23437C6.11376 8.28838 6.04325 8.42568 6.11376 8.52402L8.45907 11.7525C8.4868 11.7905 8.5231 11.8214 8.56502 11.8427C8.60693 11.8639 8.65328 11.875 8.70028 11.875C8.74729 11.875 8.79364 11.8639 8.83555 11.8427C8.87746 11.8214 8.91376 11.7905 8.94149 11.7525L12.8862 6.32158C12.9567 6.22324 12.8862 6.08594 12.7656 6.08594H11.7414C11.6468 6.08594 11.5559 6.13232 11.5002 6.2084L8.70028 10.0641L7.4998 8.41084Z" fill="#F6F6F6"/>
</svg>
