<svg width="19" height="15" viewBox="0 0 19 15" fill="none" xmlns="http://www.w3.org/2000/svg">
<path fill-rule="evenodd" clip-rule="evenodd" d="M3.16675 1.95833C2.95678 1.95833 2.75542 2.04174 2.60695 2.19021C2.45849 2.33867 2.37508 2.54004 2.37508 2.75V12.25C2.37508 12.46 2.45849 12.6613 2.60695 12.8098C2.75542 12.9583 2.95679 13.0417 3.16675 13.0417H15.8334C16.0434 13.0417 16.2447 12.9583 16.3932 12.8098C16.5417 12.6613 16.6251 12.46 16.6251 12.25V2.75C16.6251 2.54004 16.5417 2.33867 16.3932 2.19021C16.2447 2.04174 16.0434 1.95833 15.8334 1.95833H3.16675ZM1.48737 1.07062C1.93277 0.625222 2.53686 0.375 3.16675 0.375H15.8334C16.4633 0.375 17.0674 0.625222 17.5128 1.07062C17.9582 1.51602 18.2084 2.12011 18.2084 2.75V12.25C18.2084 12.8799 17.9582 13.484 17.5128 13.9294C17.0674 14.3748 16.4633 14.625 15.8334 14.625H3.16675C2.53686 14.625 1.93277 14.3748 1.48737 13.9294C1.04197 13.484 0.791748 12.8799 0.791748 12.25V2.75C0.791748 2.12011 1.04197 1.51602 1.48737 1.07062Z" fill="#F6F6F6"/>
<path fill-rule="evenodd" clip-rule="evenodd" d="M7.02713 9.70227L1.08887 4.95151L2.07799 3.71515L8.01628 8.46594L8.01631 8.46597C8.43745 8.80293 8.96074 8.98651 9.50009 8.98651C10.0394 8.98651 10.5627 8.80293 10.9839 8.46597L10.9839 8.46594L16.9222 3.71515L17.9113 4.95151L11.9731 9.70227C11.9731 9.70228 11.973 9.70229 11.973 9.7023C11.2711 10.2639 10.399 10.5698 9.50009 10.5698C8.60119 10.5698 7.72905 10.2639 7.02716 9.7023C7.02715 9.70229 7.02714 9.70228 7.02713 9.70227Z" fill="#F6F6F6"/>
</svg>
