<svg width="25" height="24" viewBox="0 0 25 24" fill="none" xmlns="http://www.w3.org/2000/svg">
<path d="M12.1781 1.33333C11.2203 1.33599 10.2672 1.4683 9.34481 1.72667L9.85814 2.96667C11.8519 2.43876 13.9641 2.5827 15.8678 3.37621C17.7716 4.16972 19.3607 5.56856 20.3893 7.35624C21.4179 9.14393 21.8286 11.2208 21.5579 13.2654C21.2871 15.3101 20.3501 17.2085 18.8917 18.6669C17.4333 20.1253 15.5349 21.0623 13.4902 21.333C11.4456 21.6038 9.36873 21.1931 7.58105 20.1645C5.79336 19.1359 4.39453 17.5467 3.60102 15.643C2.80751 13.7393 2.66357 11.6271 3.19147 9.63333L1.95147 9.11333C1.34635 11.266 1.43303 13.5544 2.19928 15.6551C2.96553 17.7558 4.37259 19.5626 6.2216 20.8201C8.0706 22.0776 10.268 22.7222 12.5033 22.6628C14.7387 22.6035 16.8988 21.8431 18.6784 20.4892C20.4581 19.1353 21.7672 17.2564 22.4209 15.118C23.0745 12.9796 23.0396 10.6898 22.3211 8.5723C21.6025 6.4548 20.2367 4.61666 18.4166 3.31767C16.5965 2.01868 14.4142 1.32453 12.1781 1.33333V1.33333Z" fill="#F6F6F6"/>
<path d="M5.1449 10.4667C4.81216 11.9871 4.98056 13.5743 5.62491 14.991C6.26926 16.4077 7.35493 17.5778 8.71955 18.3262C10.0842 19.0746 11.6544 19.3611 13.1954 19.1429C14.7364 18.9247 16.1653 18.2134 17.2685 17.1156C18.3717 16.0177 19.0898 14.5922 19.3155 13.0523C19.5411 11.5124 19.2622 9.9408 18.5204 8.57258C17.7786 7.20436 16.6138 6.11305 15.2002 5.46186C13.7866 4.81068 12.2002 4.63461 10.6782 4.96001L11.0916 6.00001C12.3865 5.75757 13.725 5.93665 14.9106 6.51097C16.0962 7.08528 17.0665 8.02456 17.679 9.19093C18.2914 10.3573 18.5139 11.6893 18.3136 12.9914C18.1133 14.2934 17.5008 15.497 16.5661 16.4254C15.6314 17.3537 14.4237 17.958 13.1203 18.1494C11.8169 18.3408 10.4864 18.1094 9.32424 17.489C8.16207 16.8686 7.22941 15.8919 6.66319 14.7024C6.09696 13.5129 5.92699 12.1732 6.17824 10.88L5.1449 10.4667Z" fill="#F6F6F6"/>
<path d="M12.1781 14.7267C11.5099 14.7168 10.8687 14.4612 10.3768 14.0087C9.88496 13.5562 9.57692 12.9384 9.51147 12.2733L8.4248 11.82V12C8.42485 12.7519 8.64837 13.4869 9.06698 14.1116C9.48559 14.7362 10.0804 15.2223 10.7759 15.5082C11.4714 15.7941 12.2361 15.8669 12.973 15.7172C13.7099 15.5676 14.3857 15.2023 14.9146 14.6678C15.4435 14.1333 15.8016 13.4537 15.9434 12.7152C16.0852 11.9768 16.0044 11.2128 15.7111 10.5204C15.4179 9.82801 14.9254 9.23839 14.2964 8.82642C13.6673 8.41445 12.93 8.19873 12.1781 8.20666H12.0181L12.4648 9.33333C13.1311 9.43438 13.736 9.77978 14.1616 10.3023C14.5873 10.8248 14.8033 11.487 14.7675 12.16C14.7317 12.833 14.4468 13.4686 13.9681 13.943C13.4895 14.4175 12.8514 14.6968 12.1781 14.7267Z" fill="#F6F6F6"/>
<path d="M5.64493 8.89333C5.70647 8.95613 5.79034 8.99208 5.87826 8.99333H8.31159L11.8916 12.5733C12.0171 12.6997 12.1877 12.7711 12.3659 12.7717C12.5441 12.7724 12.7152 12.7022 12.8416 12.5767C12.968 12.4511 13.0394 12.2805 13.04 12.1024C13.0406 11.9242 12.9705 11.7531 12.8449 11.6267L9.19826 8V5.67333C9.19701 5.58541 9.16107 5.50154 9.09826 5.44L5.37159 1.71333C5.325 1.66765 5.26603 1.63665 5.20199 1.62417C5.13794 1.61169 5.07165 1.61828 5.01131 1.64312C4.95098 1.66796 4.89926 1.70997 4.86258 1.76392C4.82589 1.81788 4.80584 1.88142 4.80493 1.94666V4.61333H2.17826C2.11302 4.61425 2.04948 4.63429 1.99552 4.67098C1.94156 4.70766 1.89956 4.75938 1.87472 4.81971C1.84987 4.88005 1.84328 4.94635 1.85576 5.01039C1.86824 5.07443 1.89925 5.13341 1.94493 5.18L5.64493 8.89333Z" fill="#F6F6F6"/>
</svg>
