<svg width="24" height="24" viewBox="0 0 24 24" fill="none" xmlns="http://www.w3.org/2000/svg">
<path d="M16.5934 17.3333H21.8334C21.3934 11.5267 18.8934 7.92 15.6867 5.78667L17.1467 2.60001C17.1908 2.49889 17.2092 2.3884 17.2001 2.27844C17.191 2.16849 17.1548 2.0625 17.0947 1.97C17.0345 1.87749 16.9524 1.80136 16.8556 1.74842C16.7588 1.69548 16.6504 1.66739 16.54 1.66667H7.40003C7.2897 1.66739 7.18128 1.69548 7.08448 1.74842C6.98768 1.80136 6.90554 1.87749 6.84541 1.97C6.78528 2.0625 6.74905 2.16849 6.73997 2.27844C6.73088 2.3884 6.74923 2.49889 6.79337 2.60001L7.59337 4.33334H14.34L13.74 5.66667H12.5067C12.8834 6.6795 13.1602 7.72669 13.3334 8.79334C13.4455 9.45499 13.5168 10.1229 13.5467 10.7933L12.4934 11.5333C12.4962 10.671 12.4248 9.81007 12.28 8.96C12.0958 7.82865 11.778 6.72315 11.3334 5.66667H10.6667C10.0515 6.44405 9.49862 7.26884 9.01337 8.13334C8.6221 8.8749 8.28996 9.64619 8.02003 10.44L7.1067 9.83334C7.37329 9.0661 7.70101 8.32149 8.0867 7.60667C8.47641 6.93636 8.90376 6.28866 9.3667 5.66667H8.20003L8.25337 5.78C4.72003 8.13334 2.03337 12.2667 2.03337 19.1667C2.02436 19.3117 2.04418 19.4571 2.09168 19.5944C2.13919 19.7318 2.21344 19.8583 2.31014 19.9668C2.40684 20.0753 2.52407 20.1635 2.65508 20.2265C2.78608 20.2894 2.92824 20.3257 3.07337 20.3333H8.4067C8.17769 20.095 8.01957 19.7976 7.95005 19.4744C7.88053 19.1513 7.90236 18.8152 8.01309 18.5038C8.12383 18.1923 8.31909 17.9179 8.577 17.7112C8.83491 17.5044 9.14529 17.3736 9.47337 17.3333C9.31371 17.0626 9.2286 16.7543 9.2267 16.44C9.2267 15.9626 9.41634 15.5048 9.75391 15.1672C10.0915 14.8296 10.5493 14.64 11.0267 14.64H15.0267C15.5041 14.64 15.9619 14.8296 16.2995 15.1672C16.6371 15.5048 16.8267 15.9626 16.8267 16.44C16.8301 16.7533 16.7496 17.0618 16.5934 17.3333Z" fill="#F6F6F6"/>
<path d="M14.4 19C14.4 18.8232 14.3297 18.6536 14.2047 18.5286C14.0797 18.4036 13.9101 18.3333 13.7333 18.3333H9.73332C9.55651 18.3333 9.38694 18.4036 9.26191 18.5286C9.13689 18.6536 9.06665 18.8232 9.06665 19C9.06665 19.1768 9.13689 19.3464 9.26191 19.4714C9.38694 19.5964 9.55651 19.6667 9.73332 19.6667H13.7333C13.9101 19.6667 14.0797 19.5964 14.2047 19.4714C14.3297 19.3464 14.4 19.1768 14.4 19Z" fill="#F6F6F6"/>
<path d="M15.0268 15.6667H11.0268C10.85 15.6667 10.6804 15.7369 10.5554 15.8619C10.4303 15.987 10.3601 16.1565 10.3601 16.3333C10.3601 16.5101 10.4303 16.6797 10.5554 16.8047C10.6804 16.9298 10.85 17 11.0268 17H15.0268C15.2036 17 15.3732 16.9298 15.4982 16.8047C15.6232 16.6797 15.6934 16.5101 15.6934 16.3333C15.6934 16.1565 15.6232 15.987 15.4982 15.8619C15.3732 15.7369 15.2036 15.6667 15.0268 15.6667Z" fill="#F6F6F6"/>
<path d="M14.6667 21H10.6667C10.4899 21 10.3203 21.0702 10.1953 21.1953C10.0702 21.3203 10 21.4899 10 21.6667C10 21.8435 10.0702 22.013 10.1953 22.1381C10.3203 22.2631 10.4899 22.3333 10.6667 22.3333H14.6667C14.8435 22.3333 15.013 22.2631 15.1381 22.1381C15.2631 22.013 15.3333 21.8435 15.3333 21.6667C15.3333 21.4899 15.2631 21.3203 15.1381 21.1953C15.013 21.0702 14.8435 21 14.6667 21Z" fill="#F6F6F6"/>
<path d="M21.7999 21H17.1332C16.9564 21 16.7868 21.0702 16.6618 21.1953C16.5368 21.3203 16.4666 21.4899 16.4666 21.6667C16.4666 21.8435 16.5368 22.013 16.6618 22.1381C16.7868 22.2631 16.9564 22.3333 17.1332 22.3333H21.7999C21.9767 22.3333 22.1463 22.2631 22.2713 22.1381C22.3963 22.013 22.4666 21.8435 22.4666 21.6667C22.4666 21.4899 22.3963 21.3203 22.2713 21.1953C22.1463 21.0702 21.9767 21 21.7999 21Z" fill="#F6F6F6"/>
<path d="M22.4666 18.3333H17.8C17.6232 18.3333 17.4536 18.4036 17.3286 18.5286C17.2035 18.6536 17.1333 18.8232 17.1333 19C17.1333 19.1768 17.2035 19.3464 17.3286 19.4714C17.4536 19.5964 17.6232 19.6667 17.8 19.6667H22.4666C22.6434 19.6667 22.813 19.5964 22.938 19.4714C23.0631 19.3464 23.1333 19.1768 23.1333 19C23.1333 18.8232 23.0631 18.6536 22.938 18.5286C22.813 18.4036 22.6434 18.3333 22.4666 18.3333Z" fill="#F6F6F6"/>
</svg>
