<svg width="23" height="19" viewBox="0 0 23 19" fill="none" xmlns="http://www.w3.org/2000/svg">
<path d="M19.3564 11C20.0604 10.9897 20.7327 10.7054 21.2306 10.2075C21.7284 9.70965 22.0127 9.03735 22.023 8.33333V2.99999H15.3564V1.95333C15.3555 1.73971 15.3125 1.52836 15.23 1.33133C15.1474 1.13431 15.0269 0.95548 14.8752 0.805048C14.7235 0.654617 14.5437 0.535533 14.346 0.454594C14.1483 0.373656 13.9366 0.332449 13.723 0.333327H8.9897C8.77608 0.332449 8.56438 0.373656 8.36669 0.454594C8.169 0.535533 7.98918 0.654617 7.83751 0.805048C7.68584 0.95548 7.56529 1.13431 7.48273 1.33133C7.40018 1.52836 7.35724 1.73971 7.35636 1.95333V2.99999H0.689697V8.33333C0.700185 9.04307 0.989062 9.72029 1.49409 10.2191C1.99912 10.7179 2.67988 10.9983 3.3897 11H6.05636V9.61333H7.3897V13.4133C7.3897 13.5901 7.31946 13.7597 7.19443 13.8847C7.06941 14.0098 6.89984 14.08 6.72303 14.08C6.54622 14.08 6.37665 14.0098 6.25163 13.8847C6.1266 13.7597 6.05636 13.5901 6.05636 13.4133V12.3733H3.39636C2.39565 12.3717 1.43115 11.9987 0.689697 11.3267V17.6267C0.689697 17.9803 0.830173 18.3194 1.08022 18.5695C1.33027 18.8195 1.66941 18.96 2.02303 18.96H20.6897C21.0433 18.96 21.3825 18.8195 21.6325 18.5695C21.8826 18.3194 22.023 17.9803 22.023 17.6267V11.3267C21.2836 12.0021 20.3178 12.3756 19.3164 12.3733H18.023V11H19.3564ZM8.6897 1.95333C8.69313 1.8761 8.72625 1.80317 8.78214 1.74976C8.83804 1.69635 8.91239 1.66658 8.9897 1.66666H13.723C13.8003 1.66658 13.8747 1.69635 13.9306 1.74976C13.9865 1.80317 14.0196 1.8761 14.023 1.95333V2.99999H8.6897V1.95333ZM16.6897 13.4133C16.6897 13.5901 16.6195 13.7597 16.4944 13.8847C16.3694 14.0098 16.1998 14.08 16.023 14.08C15.8462 14.08 15.6766 14.0098 15.5516 13.8847C15.4266 13.7597 15.3564 13.5901 15.3564 13.4133V12.3733H8.6897V11H15.3564V9.61333H16.6897V13.4133Z" fill="#F6F6F6"/>
</svg>
