<svg width="19" height="19" viewBox="0 0 19 19" fill="none" xmlns="http://www.w3.org/2000/svg">
<path fill-rule="evenodd" clip-rule="evenodd" d="M3.88338 1.294C4.52375 0.652344 5.62702 0.581986 6.27534 1.33006L8.93444 4.39945C8.94097 4.40646 8.94739 4.41361 8.9537 4.42089C9.539 5.09662 9.41918 6.07192 8.83649 6.65744L8.83534 6.65859L7.98646 7.50809C8.8626 8.92974 10.0585 10.1274 11.4788 11.0056L12.3295 10.1537C12.3296 10.1536 12.3297 10.1535 12.3298 10.1535C12.9127 9.56934 13.8848 9.44866 14.5599 10.0282C14.5599 10.0282 14.5599 10.0282 14.5599 10.0282L17.6634 12.6924C18.4176 13.3403 18.3481 14.4485 17.7058 15.0908L15.4831 17.3175C14.611 18.1906 13.2785 18.4747 12.1672 17.9348C7.31979 15.5851 3.40772 11.6675 1.06477 6.81681C0.525754 5.70533 0.809462 4.37306 1.68096 3.50038M1.68113 3.50021L3.88338 1.294C3.88342 1.29397 3.88334 1.29404 3.88338 1.294M7.75359 5.4545L5.08513 2.37429C5.08418 2.37424 5.0831 2.3742 5.08187 2.37421C5.0659 2.37426 5.03533 2.38116 5.00408 2.41247L2.80139 4.61912C2.3622 5.05884 2.27067 5.67518 2.48956 6.12623L2.49022 6.12757C4.6781 10.6576 8.3315 14.3161 12.8584 16.5103L12.8591 16.5106C13.309 16.7292 13.924 16.6379 14.3628 16.1985L16.5857 13.9718L16.5862 13.9713C16.6177 13.9397 16.6249 13.9084 16.6249 13.8916C16.625 13.89 16.6249 13.8887 16.6248 13.8875L13.5332 11.2336C13.5313 11.2334 13.5286 11.2334 13.5247 11.2337C13.5073 11.2349 13.4785 11.2438 13.4504 11.2719L12.3749 12.3491C12.201 12.5278 11.9739 12.6456 11.7274 12.6848C11.4771 12.7246 11.2207 12.6812 10.9975 12.5612C10.9907 12.5576 10.984 12.5538 10.9773 12.55C9.09096 11.4637 7.52623 9.89694 6.44245 8.00921C6.43877 8.00281 6.43519 7.99636 6.43169 7.98986C6.31169 7.7666 6.26823 7.51014 6.308 7.25981C6.34715 7.01335 6.46483 6.78623 6.64336 6.61218L7.71419 5.54057C7.71431 5.54045 7.71443 5.54033 7.71454 5.54022C7.74315 5.5113 7.75229 5.48164 7.75355 5.46344C7.75383 5.45942 7.75376 5.4565 7.75359 5.4545Z" fill="#F6F6F6"/>
</svg>
