<svg width="38" height="38" viewBox="0 0 38 38" fill="none" xmlns="http://www.w3.org/2000/svg">
<path fill-rule="evenodd" clip-rule="evenodd" d="M19 0.666626C8.87502 0.666626 0.666687 8.87496 0.666687 19C0.666687 29.125 8.87502 37.3333 19 37.3333C29.125 37.3333 37.3334 29.125 37.3334 19C37.3334 8.87496 29.125 0.666626 19 0.666626ZM26.9467 15.9C27.093 15.7327 27.2044 15.5379 27.2743 15.3269C27.3442 15.116 27.3713 14.8931 27.3538 14.6716C27.3363 14.4501 27.2747 14.2342 27.1726 14.0368C27.0705 13.8394 26.93 13.6645 26.7593 13.5222C26.5885 13.3799 26.3911 13.2732 26.1785 13.2084C25.9659 13.1436 25.7426 13.1219 25.5215 13.1447C25.3004 13.1674 25.0861 13.2342 24.8913 13.341C24.6964 13.4478 24.5248 13.5925 24.3867 13.7666L17.22 22.365L13.5117 18.655C13.1973 18.3514 12.7763 18.1834 12.3394 18.1872C11.9024 18.191 11.4843 18.3662 11.1753 18.6753C10.8663 18.9843 10.691 19.4023 10.6872 19.8393C10.6834 20.2763 10.8514 20.6973 11.155 21.0116L16.155 26.0116C16.3188 26.1753 16.5148 26.303 16.7307 26.3867C16.9466 26.4704 17.1775 26.5082 17.4088 26.4977C17.6401 26.4872 17.8666 26.4286 18.074 26.3257C18.2814 26.2228 18.4651 26.0778 18.6134 25.9L26.9467 15.9Z" fill="#F6F6F6"/>
</svg>
